<?xml version="1.0" standalone="no"?>
<!DOCTYPE svg PUBLIC "-//W3C//DTD SVG 20010904//EN"
 "http://www.w3.org/TR/2001/REC-SVG-20010904/DTD/svg10.dtd">
<svg version="1.0" xmlns="http://www.w3.org/2000/svg"
 width="128.000000pt" height="128.000000pt" viewBox="0 0 128.000000 128.000000"
 preserveAspectRatio="xMidYMid meet">
<metadata>
Created by potrace 1.14, written by Peter Selinger 2001-2017
</metadata>
<g transform="translate(0.000000,128.000000) scale(0.100000,-0.100000)"
fill="#000000" stroke="none">
<path d="M622 1241 c-21 -22 -46 -62 -55 -89 l-18 -50 -54 19 c-89 31 -125 18
-232 -82 -44 -43 -81 -69 -95 -70 l-23 0 23 -11 c29 -14 28 -22 -5 -43 -62
-38 -122 -131 -138 -210 -7 -38 -7 -170 0 -210 17 -93 35 -144 83 -240 58
-118 123 -200 184 -231 36 -19 142 -23 208 -8 42 9 87 7 217 -11 60 -8 112 6
162 43 36 27 124 157 160 237 13 28 27 59 32 70 46 104 57 267 24 387 -7 26
-6 26 29 18 20 -4 36 -6 36 -4 0 14 64 -32 81 -59 l21 -32 -6 68 c-11 118 -48
175 -171 262 -110 79 -160 94 -290 91 -60 -2 -121 0 -135 4 -29 7 -37 31 -18
52 59 64 58 62 47 101 -5 20 -14 37 -20 37 -5 0 -27 -18 -47 -39z m16 -221
c12 -51 10 -55 -36 -64 l-33 -6 7 38 c4 20 14 55 22 76 17 44 20 41 40 -44z
m-95 3 c-1 -50 -5 -67 -15 -66 -7 1 -30 6 -51 10 l-38 8 43 58 c23 31 47 57
52 57 7 0 10 -26 9 -67z"/>
</g>
</svg>
